<svg width="67" height="62" viewBox="0 0 67 62" fill="none" xmlns="http://www.w3.org/2000/svg">
<path d="M39.2248 10.1637C40.1998 10.1637 40.9497 9.41375 40.9872 8.51378V1.80144C41.0004 1.3494 40.8344 0.910484 40.5253 0.580346C40.2162 0.250209 39.7892 0.0556184 39.3373 0.0389876C39.1128 0.0195358 38.8867 0.0450447 38.6721 0.114022C38.4576 0.183 38.259 0.294061 38.0879 0.440711C37.9168 0.58736 37.7767 0.766653 37.6757 0.968103C37.5747 1.16955 37.5149 1.38912 37.4998 1.61395V8.36378C37.4248 9.30126 38.1373 10.0887 39.0748 10.1262C39.1123 10.1637 39.1873 10.1637 39.2248 10.1637ZM25.1626 6.78882H32.1375C33.1124 6.82632 33.8999 6.11384 33.9749 5.17636C34.0499 4.23888 33.2624 3.4889 32.325 3.4139H25.3126C24.3752 3.33891 23.5127 4.01389 23.4002 4.91387C23.2877 5.81384 24.0002 6.67632 25.0126 6.78882C25.0126 6.75132 25.0876 6.75132 25.1626 6.78882ZM17.1378 9.86374C17.6628 10.2387 18.3378 10.2762 18.9003 9.97624C19.5378 9.71375 19.9128 9.07626 19.8753 8.40128V1.72645C19.9503 0.788969 19.1253 0.0389876 18.1878 0.00148853H18.1503C17.2128 -0.0360105 16.4254 0.638973 16.4254 1.57645V1.65145C16.3879 3.93889 16.4254 6.18883 16.4254 8.51378C16.3879 9.03876 16.6878 9.56375 17.1378 9.86374Z" fill="#333333"/>
<path d="M31.275 54.7875H6.00063C4.68816 54.7875 3.97568 54.0001 3.97568 52.5751V23.5508H52.7995L52.8745 31.6506C54.1119 31.8006 55.2744 31.4256 56.3619 31.9506L56.2869 9.93867C56.3619 6.71375 54.0369 4.05132 51.1495 3.97632H47.6621C47.4746 3.97632 47.3246 3.97632 47.1371 4.05132C46.1621 4.27631 45.5996 5.36378 45.8621 6.41376C46.0496 7.27624 46.7246 7.87622 47.5121 7.87622H50.8495C52.1245 7.87622 52.837 8.6637 52.837 10.0512V19.5759H4.01318C4.01318 19.4634 3.97568 19.3509 3.97568 19.2759V9.90117C3.97568 8.8137 4.72566 7.95122 5.66314 7.95122H9.22555C10.2005 8.02622 10.988 7.16374 11.063 6.11377C11.1005 5.02629 10.3505 4.12631 9.41304 4.08882H7.0881C6.41312 4.01382 5.77563 4.01382 5.10065 4.12631C2.40072 4.42631 0.413268 6.97624 0.450767 9.97617V52.6876C0.375769 55.9125 2.66321 58.575 5.55064 58.6875H5.85063L31.575 58.65C31.275 57.6375 31.275 56.175 31.275 54.7875Z" fill="#333333"/>
<path d="M33.75 43.0625V31.7891H35.8125L40.9062 39.1172H40.9531V31.7891H43.3047V43.0625H41.2578L36.1484 35.6797H36.1016V43.0625H33.75ZM48.8047 43.2344C46.2422 43.2344 44.6875 41.5703 44.6875 38.8906V38.8828C44.6875 36.2188 46.2578 34.5156 48.7109 34.5156C51.1641 34.5156 52.7031 36.1797 52.7031 38.7109V39.4141H46.9375C46.9609 40.75 47.6875 41.5312 48.8516 41.5312C49.7891 41.5312 50.3594 41.0156 50.5234 40.5469L50.5391 40.5H52.6328L52.6094 40.5859C52.3516 41.8203 51.1953 43.2344 48.8047 43.2344ZM48.75 36.2188C47.8125 36.2188 47.1094 36.8438 46.9609 37.9766H50.5156C50.375 36.8203 49.6953 36.2188 48.75 36.2188ZM53.1875 43.0625L55.8125 38.8906L53.2031 34.6875H55.7734L57.2812 37.5156H57.3281L58.8125 34.6875H61.2969L58.6797 38.8281L61.2734 43.0625H58.7969L57.2031 40.1562H57.1562L55.5859 43.0625H53.1875ZM65.5391 43.2344C63.6797 43.2344 62.8047 42.5156 62.8047 40.7188V36.4062H61.6406V34.6875H62.8047V32.6406H65.1094V34.6875H66.6406V36.4062H65.1094V40.4688C65.1094 41.25 65.4609 41.5156 66.1484 41.5156C66.3516 41.5156 66.5 41.4922 66.6406 41.4766V43.1484C66.3828 43.1875 66.0156 43.2344 65.5391 43.2344ZM33.75 59.0625V47.7891H38.0547C41.4297 47.7891 43.4297 49.7969 43.4297 53.3672V53.3828C43.4297 56.9609 41.4375 59.0625 38.0547 59.0625H33.75ZM36.1094 57.1094H37.7734C39.8828 57.1094 41.0234 55.8281 41.0234 53.3906V53.375C41.0234 51.0234 39.8438 49.7344 37.7734 49.7344H36.1094V57.1094ZM47.2031 59.1953C45.5234 59.1953 44.3906 58.1406 44.3906 56.6641V56.6484C44.3906 55.125 45.5703 54.2344 47.6484 54.1016L49.7188 53.9766V53.4609C49.7188 52.7188 49.2344 52.2578 48.3438 52.2578C47.4922 52.2578 46.9766 52.6562 46.8672 53.1953L46.8516 53.2656H44.7656L44.7734 53.1719C44.8984 51.625 46.2266 50.5156 48.4375 50.5156C50.6016 50.5156 52 51.6328 52 53.3203V59.0625H49.7188V57.8125H49.6719C49.1953 58.6719 48.3047 59.1953 47.2031 59.1953ZM46.6484 56.5469C46.6484 57.1641 47.1562 57.5312 47.9453 57.5312C48.9688 57.5312 49.7188 56.875 49.7188 56V55.3984L47.9922 55.5078C47.1094 55.5625 46.6484 55.9375 46.6484 56.5312V56.5469ZM54.7422 61.8203C54.2969 61.8203 53.8438 61.7656 53.5781 61.7188V60.0234C53.7422 60.0547 54.0078 60.1016 54.3438 60.1016C55.0234 60.1016 55.3984 59.9062 55.6016 59.3359L55.7031 59.0625L52.7422 50.6875H55.25L57.0156 57.2344H57.0781L58.8516 50.6875H61.2578L58.3828 59.2109C57.7266 61.1875 56.6016 61.8203 54.7422 61.8203Z" fill="#333333"/>
</svg>
