<svg width="19" height="20" viewBox="0 0 19 20" fill="none" xmlns="http://www.w3.org/2000/svg">
<path d="M15.1528 0.833496C13.2431 0.833496 11.6389 2.43767 11.6389 4.34739C11.6389 4.65295 11.7153 4.9585 11.7917 5.18767L7.66667 7.32656C6.90278 6.40989 5.75695 5.87517 4.53472 5.87517C2.24305 5.87517 0.333328 7.7849 0.333328 10.0766C0.333328 12.3682 2.24305 14.2016 4.53472 14.2016C5.68056 14.2016 6.75001 13.7432 7.5139 12.9794L10.1875 14.5835C10.1111 14.9655 10.0347 15.271 10.0347 15.653C10.0347 17.5627 11.6389 19.1669 13.5486 19.1669C15.4584 19.1669 17.0625 17.5627 17.0625 15.653C17.0625 13.7432 15.4584 12.1391 13.5486 12.1391C12.5556 12.1391 11.6389 12.5974 11.0278 13.2849L8.43056 11.7571C8.65973 11.2224 8.73612 10.6877 8.73612 10.0766C8.73612 9.61823 8.65973 9.1599 8.50695 8.70157L12.4792 6.63906C13.0903 7.40295 14.0834 7.93767 15.1528 7.93767C17.0625 7.93767 18.6667 6.33351 18.6667 4.42378C18.6667 2.43767 17.0625 0.833496 15.1528 0.833496Z" fill="white"/>
</svg>
