<svg width="62" height="62" viewBox="0 0 62 62" fill="none" xmlns="http://www.w3.org/2000/svg">
<path d="M30.9999 5.9362C15.7255 5.9362 3.29773 18.3639 3.29773 33.6383C3.29773 39.1339 4.90973 44.4487 7.95699 49.009C8.56379 49.9193 9.79193 50.158 10.7022 49.5538C11.611 48.947 11.8538 47.7189 11.2469 46.8087C8.63633 42.9013 7.25519 38.3477 7.25519 33.6383C7.25519 20.5457 17.9073 9.8936 30.9999 9.8936C44.0925 9.8936 54.7445 20.5457 54.7445 33.6383C54.7445 46.7309 44.0925 57.3829 30.9999 57.3829C26.276 57.3829 21.7091 55.9952 17.7952 53.3715C16.8943 52.766 15.6621 53.0061 15.05 53.9136C14.4419 54.8212 14.6847 56.0493 15.5922 56.6588C20.1591 59.7205 25.4871 61.3404 30.9999 61.3404C46.2743 61.3404 58.702 48.9127 58.702 33.6383C58.702 18.3639 46.2743 5.9362 30.9999 5.9362ZM31.018 15.1702C29.9257 15.1702 29.0392 16.0567 29.0392 17.1489V34.2979C29.0392 35.1316 29.5616 35.8743 30.3438 36.1579C30.5599 36.2366 30.788 36.2768 31.018 36.2765C31.308 36.2766 31.5945 36.2128 31.8572 36.0897C32.1198 35.9666 32.3521 35.7872 32.5376 35.5643L39.1333 27.6493C39.8338 26.8104 39.7203 25.5625 38.88 24.8633C38.041 24.1642 36.7944 24.275 36.094 25.1166L32.9966 28.8313V17.1489C32.9966 16.0567 32.1102 15.1703 31.0179 15.1703L31.018 15.1702ZM26.3829 3.95746H35.6169C36.7091 3.95746 37.5956 3.071 37.5956 1.97873C37.5956 0.886467 36.7092 0 35.6169 0H26.3829C25.2906 0 24.4042 0.886467 24.4042 1.97867C24.4042 3.07094 25.2906 3.95746 26.3829 3.95746ZM55.3243 13.9309C55.7109 14.3174 56.2174 14.51 56.7239 14.51C57.2292 14.51 57.7357 14.3174 58.1223 13.9309C58.8953 13.1579 58.8953 11.906 58.1223 11.133L54.1648 7.17553C53.3918 6.40247 52.1399 6.40247 51.3669 7.17553C50.5939 7.94853 50.5939 9.2004 51.3669 9.9734L55.3243 13.9309Z" fill="#333333"/>
</svg>
